<?xml version="1.0" standalone="no"?>
<!DOCTYPE svg PUBLIC "-//W3C//DTD SVG 20010904//EN"
 "http://www.w3.org/TR/2001/REC-SVG-20010904/DTD/svg10.dtd">
<svg version="1.0" xmlns="http://www.w3.org/2000/svg"
 width="348.000000pt" height="348.000000pt" viewBox="0 0 348.000000 348.000000"
 preserveAspectRatio="xMidYMid meet">
<metadata>
Created by potrace 1.11, written by Peter Selinger 2001-2013
</metadata>
<g transform="translate(0.000000,348.000000) scale(0.100000,-0.100000)"
fill="#000000" stroke="none">
<path d="M0 1840 l0 -1630 115 0 115 0 0 -105 0 -105 1625 0 1625 0 0 1620 0
1620 -105 0 -105 0 0 115 0 115 -1635 0 -1635 0 0 -1630z m3200 1490 l0 -90
-1485 0 -1485 0 0 -1485 0 -1485 -90 0 -90 0 0 1575 0 1575 1575 0 1575 0 0
-90z m0 -1605 l0 -1455 -1450 0 -1450 0 0 1455 0 1455 1450 0 1450 0 0 -1455z
m250 -120 l0 -1575 -1575 0 -1575 0 0 90 0 90 1485 0 1485 0 0 1485 0 1485 90
0 90 0 0 -1575z"/>
<path d="M580 1685 l0 -606 373 3 373 3 76 37 c139 69 253 221 294 393 21 90
22 249 0 338 -41 172 -163 333 -302 399 l-69 33 -372 3 -373 3 0 -606z m751
303 c58 -34 94 -76 128 -148 23 -48 26 -68 26 -155 0 -87 -3 -107 -26 -155
-35 -75 -79 -123 -141 -154 -51 -26 -55 -26 -285 -26 l-233 0 0 336 0 335 243
-3 242 -3 46 -27z"/>
<path d="M2033 2265 c-103 -52 -181 -166 -203 -297 -15 -97 -12 -510 4 -589
28 -130 99 -228 199 -275 51 -24 56 -24 363 -24 l310 0 51 25 c58 29 122 93
152 154 41 80 51 145 51 338 l0 182 -282 -2 -283 -2 -3 -137 -3 -138 176 0
c198 0 192 3 159 -79 -28 -71 -30 -71 -333 -71 l-271 0 -32 29 -33 29 -3 258
c-3 276 0 298 46 334 23 19 41 20 289 20 304 0 310 -1 338 -75 l18 -45 110 0
110 0 -7 55 c-17 149 -114 282 -235 323 -23 8 -133 12 -336 12 l-301 0 -51
-25z"/>
</g>
</svg>
